<svg xmlns="http://www.w3.org/2000/svg" width="21.16" height="21.16" viewBox="0 0 21.16 21.16"><defs><style>.a{fill:#acacac;}</style></defs><path class="a" d="M18.68,11.407H13.886a2.483,2.483,0,0,0-2.48,2.48V18.68a2.483,2.483,0,0,0,2.48,2.48H18.68a2.483,2.483,0,0,0,2.48-2.48V13.886A2.483,2.483,0,0,0,18.68,11.407Zm.827,7.274a.828.828,0,0,1-.827.827H13.886a.828.828,0,0,1-.827-.827V13.886a.828.828,0,0,1,.827-.827H18.68a.828.828,0,0,1,.827.827ZM7.274,11.407H2.48A2.483,2.483,0,0,0,0,13.886V18.68a2.483,2.483,0,0,0,2.48,2.48H7.274a2.483,2.483,0,0,0,2.48-2.48V13.886A2.483,2.483,0,0,0,7.274,11.407ZM8.1,18.68a.828.828,0,0,1-.827.827H2.48a.828.828,0,0,1-.827-.827V13.886a.828.828,0,0,1,.827-.827H7.274a.828.828,0,0,1,.827.827ZM7.274,0H2.48A2.483,2.483,0,0,0,0,2.48V7.274a2.483,2.483,0,0,0,2.48,2.48H7.274a2.483,2.483,0,0,0,2.48-2.48V2.48A2.483,2.483,0,0,0,7.274,0ZM8.1,7.274a.828.828,0,0,1-.827.827H2.48a.828.828,0,0,1-.827-.827V2.48a.828.828,0,0,1,.827-.827H7.274A.828.828,0,0,1,8.1,2.48ZM18.68,0H13.886a2.483,2.483,0,0,0-2.48,2.48V7.274a2.483,2.483,0,0,0,2.48,2.48H18.68a2.483,2.483,0,0,0,2.48-2.48V2.48A2.483,2.483,0,0,0,18.68,0Zm.827,7.274a.828.828,0,0,1-.827.827H13.886a.828.828,0,0,1-.827-.827V2.48a.828.828,0,0,1,.827-.827H18.68a.828.828,0,0,1,.827.827Z"/></svg>