<svg id="Layer_1" data-name="Layer 1" xmlns="http://www.w3.org/2000/svg" viewBox="0 0 419.1 307.6"><defs><style>.cls-1{fill:#f26a63;}</style></defs><title>zipcap icon svg</title><path class="cls-1" d="M456.63,385.11l-68.14-68.29,0,0A153.61,153.61,0,0,0,262.5,96.7l.9-.51L51.56,96a10.82,10.82,0,0,0-7.67,18.46L112,182.7h0A153.6,153.6,0,0,0,238,402.82l-.9.52,211.84.22A10.81,10.81,0,0,0,456.63,385.11ZM250.26,348.29a98.53,98.53,0,1,1,98.52-98.53A98.52,98.52,0,0,1,250.26,348.29Z" transform="translate(-40.71 -95.96)"/><path class="cls-1" d="M250.26,196.73a53,53,0,1,0,53,53A53,53,0,0,0,250.26,196.73Zm37.51,68.58a39.47,39.47,0,0,1-31,23.48v10.43L250.26,294l-6.51,5.22V288.36a39.36,39.36,0,1,1,44-54.14,6.51,6.51,0,0,1-6,9h0a6.52,6.52,0,0,1-6-3.95,26.36,26.36,0,1,0,0,20.9,6.51,6.51,0,0,1,12,5.1Z" transform="translate(-40.71 -95.96)"/></svg>